<?xml version="1.0" encoding="UTF-8"?><svg version="1.1" id="Layer_1" xmlns="http://www.w3.org/2000/svg" xmlns:xlink="http://www.w3.org/1999/xlink" x="0px" y="0px" viewBox="0 0 1000 1000" enable-background="new 0 0 1000 1000" xml:space="preserve" width="1000px" height="1000px">
<ellipse fill="#E4E8EC" cx="495.924" cy="869.82" rx="258.345" ry="45.198"/>
<path fill="#FFC195" d="M437.449,272.513L362,511l-91.823,62.791L284.563,731l158.663-84.951
	c32.505-17.403,52.832-51.247,52.924-88.118l0.694-276.5c0.042-16.765-13.514-30.389-30.279-30.431c-0.026,0-0.051,0-0.077,0l0,0
	C453.129,251,441.34,259.733,437.449,272.513z"/>
<path fill="#FFA688" d="M466.488,251c-7.08,0.003-13.935,2.485-19.377,7.014c16.578,0.293,29.853,13.837,29.814,30.418l-0.695,276.5
	c-0.092,36.871-20.418,70.714-52.923,88.118l-139.064,74.456l0.32,3.494l158.663-84.951c32.505-17.403,52.832-51.247,52.924-88.118
	l0.694-276.5c0.042-16.765-13.514-30.389-30.279-30.431C466.539,251,466.514,251,466.488,251z"/>
<path fill="#171819" d="M284.563,734c-1.551,0-2.846-1.183-2.987-2.727l-14.387-157.209c-0.099-1.083,0.396-2.136,1.294-2.75
	l90.969-62.206l75.132-237.486c5.378-17.62,24.021-27.544,41.642-22.167c14.061,4.292,23.655,17.283,23.619,31.985l-0.7,276.5
	c-0.066,37.982-21.009,72.851-54.507,90.754l-158.659,84.951C285.543,733.878,285.057,734,284.563,734z M273.325,575.272
	l13.814,150.947L441.811,643.4c31.551-16.863,51.276-49.706,51.339-85.48l0.7-276.5c0.037-15.109-12.181-27.387-27.29-27.424
	c-12.064-0.03-22.723,7.846-26.237,19.386c0,0.01-0.006,0.02-0.009,0.03L364.86,511.905c-0.202,0.64-0.613,1.193-1.167,1.572
	L273.325,575.272z M437.448,272.513L437.448,272.513z"/>
<path fill="#FFDC00" d="M341.339,545.787l23.061,69.566c4.933,14.876,7.3,30.483,7,46.153l-0.929,48.353
	c-0.185,9.65-5.982,18.305-14.835,22.149l-152.98,66.426l-53.444-215.308l150.379-57.181c16.519-6.281,35.003,2.018,41.284,18.537
	C341.039,544.914,341.194,545.349,341.339,545.787z"/>
<path fill="#FF9770" d="M364.4,615.353l-23.059-69.566c-3.71-11.203-13.289-19.452-24.918-21.459l19.285,58.18
	c4.932,14.876,7.3,30.482,7,46.152l-0.929,48.353c-0.185,9.65-5.982,18.305-14.835,22.149l-134.439,58.376l10.151,40.9
	l152.974-66.43c8.853-3.844,14.65-12.499,14.835-22.149l0.929-48.353C371.696,645.836,369.331,630.23,364.4,615.353z"/>
<path fill="#171819" d="M202.656,801.435c-1.379,0-2.58-0.94-2.912-2.278L146.3,583.849c-0.366-1.473,0.427-2.988,1.846-3.527
	l150.378-57.18c18.068-6.871,38.284,2.205,45.155,20.273c0.179,0.472,0.349,0.948,0.508,1.427l23.059,69.565
	c5.045,15.198,7.462,31.145,7.148,47.155l-0.93,48.353c-0.224,10.818-6.721,20.518-16.639,24.844l-152.973,66.428
	C203.474,801.35,203.067,801.435,202.656,801.435z M152.765,584.984l51.949,209.287l149.721-65.015
	c7.767-3.388,12.855-10.984,13.031-19.456l0.93-48.353c0.3-15.33-2.015-30.599-6.845-45.152l-23.06-69.565l0,0
	c-5.039-15.203-21.449-23.442-36.652-18.403c-0.397,0.132-0.791,0.272-1.182,0.421L152.765,584.984z"/>
<path fill="#FFA688" d="M472.231,391.85L472.231,391.85c-7.2,0.001-14.017,3.239-18.568,8.818
	c12.881,0.485,23.074,11.068,23.075,23.959V533h19.475V415.832C496.213,402.587,485.476,391.85,472.231,391.85
	C472.231,391.85,472.231,391.85,472.231,391.85z"/>
<path fill="#171819" d="M496.213,536c-1.657,0-3-1.343-3-3V415.832c-0.001-11.588-9.396-20.981-20.984-20.98
	c-9.503,0.001-17.819,6.389-20.27,15.57L423.7,515.718c-0.429,1.602-2.076,2.552-3.677,2.122s-2.552-2.076-2.122-3.677l0,0
	l28.254-105.292c3.846-14.397,18.634-22.95,33.031-19.105c11.805,3.153,20.018,13.847,20.019,26.066V533
	C499.204,534.653,497.866,535.995,496.213,536z"/>
<path fill="#FFC195" d="M556.24,272.513L631.689,511l91.823,62.791L709.126,731l-158.663-84.951
	c-32.505-17.403-52.832-51.247-52.924-88.118l-0.695-276.5c-0.041-16.766,13.517-30.39,30.283-30.431c0.024,0,0.049,0,0.073,0l0,0
	C540.559,250.999,552.349,259.733,556.24,272.513z"/>
<path fill="#FFA688" d="M527.2,251c7.08,0.003,13.935,2.485,19.377,7.014c-16.578,0.293-29.853,13.837-29.814,30.418l0.694,276.5
	c0.093,36.871,20.419,70.714,52.924,88.118l139.064,74.457l-0.32,3.494l-158.662-84.952c-32.505-17.404-52.832-51.247-52.925-88.118
	l-0.693-276.5c-0.042-16.765,13.514-30.389,30.279-30.431C527.149,251,527.175,251,527.2,251z"/>
<path fill="#171819" d="M709.126,734c-0.494,0-0.98-0.122-1.416-0.355l-158.663-84.952c-33.498-17.902-54.441-52.772-54.508-90.754
	l-0.694-276.5c-0.046-18.422,14.85-33.393,33.272-33.44c14.704-0.037,27.697,9.558,31.988,23.622l75.131,237.486l90.969,62.206
	c0.898,0.614,1.393,1.667,1.294,2.75l-14.386,157.21C711.972,732.817,710.677,734,709.126,734z M527.2,254
	c-15.108,0-27.355,12.247-27.355,27.355c0,0.023,0,0.047,0,0.07l0.694,276.5c0.063,35.775,19.789,68.618,51.34,85.48l154.672,82.815
	l13.812-150.947L630,513.477c-0.554-0.379-0.965-0.932-1.167-1.572L553.38,273.417l-0.01-0.03
	C549.905,261.84,539.255,253.951,527.2,254z"/>
<path fill="#FFDC00" d="M652.35,545.787l-23.059,69.566c-4.933,14.876-7.3,30.483-7,46.153l0.929,48.353
	c0.185,9.65,5.982,18.305,14.835,22.149l152.974,66.426l53.444-215.308L694.1,525.945c-16.519-6.282-35.003,2.016-41.285,18.535
	C652.651,544.912,652.495,545.348,652.35,545.787z"/>
<path fill="#FF9770" d="M629.29,615.353l23.06-69.566c3.71-11.203,13.289-19.452,24.918-21.459l-19.285,58.18
	c-4.932,14.876-7.3,30.482-7,46.152l0.929,48.353c0.185,9.65,5.982,18.305,14.835,22.149l134.433,58.376l-10.151,40.9l-152.97-66.43
	c-8.853-3.844-14.65-12.499-14.835-22.149l-0.929-48.353C621.994,645.836,624.359,630.23,629.29,615.353z"/>
<path fill="#171819" d="M791.033,801.435c-0.413,0-0.821-0.084-1.2-0.248l-152.97-66.427c-9.918-4.326-16.413-14.026-16.638-24.844
	l-0.929-48.353c-0.315-16.01,2.102-31.957,7.147-47.155l23.057-69.565c6.083-18.348,25.888-28.29,44.236-22.207
	c0.479,0.159,0.954,0.328,1.426,0.507l150.379,57.18c1.419,0.539,2.212,2.054,1.846,3.527l-53.442,215.307
	C793.613,800.495,792.412,801.435,791.033,801.435z M652.35,545.787l2.847,0.944L632.139,616.3
	c-4.831,14.552-7.146,29.821-6.845,45.151l0.929,48.353c0.176,8.472,5.264,16.067,13.031,19.455l149.722,65.015l51.948-209.287
	l-147.893-56.238c-14.971-5.691-31.721,1.832-37.412,16.803c-0.148,0.39-0.288,0.783-0.419,1.179L652.35,545.787z"/>
<path fill="#FFA688" d="M521.457,391.85L521.457,391.85c7.2,0.001,14.018,3.239,18.569,8.818
	c-12.881,0.485-23.074,11.068-23.075,23.959V533h-19.475V415.832C497.476,402.588,508.212,391.851,521.457,391.85z"/>
<path fill="#171819" d="M497.476,536c-1.657,0-3-1.343-3-3V415.832c-0.001-14.901,12.079-26.982,26.98-26.982
	c12.223-0.001,22.919,8.216,26.07,20.025l28.254,105.288c0.426,1.601-0.527,3.244-2.128,3.67c-1.596,0.425-3.235-0.521-3.667-2.115
	L541.73,410.426c-2.985-11.196-14.481-17.853-25.677-14.869c-9.186,2.449-15.577,10.768-15.577,20.275V533
	C500.476,534.657,499.133,536,497.476,536z"/>
</svg>